<?xml version="1.0" encoding="utf-8"?>
<svg stroke-linecap="round" font-size="12" font-family="Segoe UI" viewbox="0,0,630,355" width="100%" style="max-width:800" xmlns:xlink="http://www.w3.org/1999/xlink" xmlns="http://www.w3.org/2000/svg">
  <defs />
  <rect width="630.736666666667" height="355.3275" fill="#FFFFFF" />
  <g transform="translate(20,20)">
    <g id="A-&gt;B">
      <path d="M 214.020839822025,83.6075000000001 L 219.181666666667,88.6075000000001 C 231.553888888889,100.594166666667 246.887222222222,112.580833333333 265.181666666667,124.5675 L 265.284803621345,124.635076159555" fill="none" stroke="#A0A0A0" stroke-width="1" />
      <path d="M 272.812830923248,129.5675 L 266.640544516887,120.741239154215 C 266.015533079188,123.519812855569 264.554074163501,125.75033946354 262.256167769824,127.432818978129 z" fill="#A0A0A0" stroke="#A0A0A0" stroke-width="1" stroke-linejoin="round" />
      <text x="237.74000000000012" y="111.55750000000008" fill="#A0A0A0">CreateActor</text>
    </g>
    <g id="B-&gt;C">
      <path d="M 306.020839822025,155.5275 L 311.181666666667,160.5275 C 323.553888888889,172.514166666667 338.887222222222,185.830833333334 357.181666666667,200.4775 L 361.384904480405,203.842643082945" fill="none" stroke="#A0A0A0" stroke-width="1" />
      <path d="M 368.410641784251,209.4675 L 363.10420340978,200.09510906823 C 362.218216616265,202.801793112005 360.551592344545,204.883493053886 358.10433059462,206.340208893871 z" fill="#A0A0A0" stroke="#A0A0A0" stroke-width="1" stroke-linejoin="round" />
      <text x="329.74000000000024" y="183.47750000000013" fill="#A0A0A0">CreateActor</text>
    </g>
    <g id="C-&gt;D">
      <path d="M 405.904685022946,235.4275 L 486.658388409062,284.681094660693" fill="none" stroke="#A0A0A0" stroke-width="1" />
      <path d="M 494.341981643721,289.3675 L 487.887502644903,280.74545262981 C 487.352670681552,283.542784551854 485.964106136572,285.819404769531 483.721809009963,287.57531328284 z" fill="#A0A0A0" stroke="#A0A0A0" stroke-width="1" stroke-linejoin="round" />
      <text x="401.20846891948281" y="271.35750000000024" fill="#A0A0A0">SendEvent</text>
    </g>
    <g id="CreateActor(&quot;A&quot;,Op)-&gt;A">
      <path d="M 94.470464605288,25.96 L 167.373313931497,56.6364015075376" fill="none" stroke="#A0A0A0" stroke-width="1" />
      <path d="M 175.668827094361,60.1270262889698 L 168.002979038482,52.56165957055 C 167.890443528746,55.4074365945207 166.856184334248,57.8653664205545 164.900201454987,59.9354490486514 z" fill="#A0A0A0" stroke="#A0A0A0" stroke-width="1" stroke-linejoin="round" />
    </g>
    <g id="CurrentOperation==Op-&gt;B">
      <path d="M 331.623333333333,83.6075000000001 L 331.623333333333,88.6075000000001 C 331.623333333333,100.224129630344 325.518458190762,111.840759260688 313.308707905619,123.457388891032" fill="none" stroke="#A0A0A0" stroke-width="1" />
      <path d="M 306.700641453467,129.5675 L 316.758542448733,125.715406079881 C 314.213909551392,124.436361698758 312.403506259846,122.478416083306 311.327332574095,119.841569233523 z" fill="#A0A0A0" stroke="#A0A0A0" stroke-width="1" stroke-linejoin="round" />
    </g>
    <g id="CurrentOperation==Op1-&gt;C">
      <path d="M 423.623333333333,155.5275 L 423.623333333333,160.5275 C 423.623333333333,172.514166666667 417.123333333334,185.830833333334 404.123333333334,200.4775 L 402.118372054797,202.736423040485" fill="none" stroke="#A0A0A0" stroke-width="1" />
      <path d="M 396.144043392505,209.4675 L 405.773776110392,204.643782783779 C 403.115568641392,203.621508768232 401.121175468202,201.851337312738 399.790596590822,199.333268417298 z" fill="#A0A0A0" stroke="#A0A0A0" stroke-width="1" stroke-linejoin="round" />
    </g>
    <g id="CurrentOperation==Op2-&gt;A">
      <path d="M 225.41816398514,25.96 L 212.196536238103,49.7785557983533" fill="none" stroke="#A0A0A0" stroke-width="1" />
      <path d="M 207.828502681527,57.6475 L 216.17918183401,50.845576912204 C 213.362305749458,50.4256718808089 211.030766726748,49.1314397158976 209.184564765879,46.9628804174701 z" fill="#A0A0A0" stroke="#A0A0A0" stroke-width="1" stroke-linejoin="round" />
    </g>
    <g id="CurrentOperation==OpWhenEventIsDequeued-&gt;D">
      <path d="M 515.623333333333,243.4075 L 515.623333333333,280.3675" fill="none" stroke="#A0A0A0" stroke-width="1" />
      <path d="M 515.623333333333,289.3675 L 519.623333333333,279.3675 C 516.956666666667,280.3675 514.29,280.3675 511.623333333333,279.3675 z" fill="#A0A0A0" stroke="#A0A0A0" stroke-width="1" stroke-linejoin="round" />
    </g>
    <g id="A">
      <rect x="175.623333333333" y="57.6475" rx="3" ry="3" width="50" height="25.96" fill="#FFFFFF" stroke="#A5A6A9" stroke-width="1" />
      <text x="196.623333333333" y="75.5975" fill="#3D3D3D">A</text>
    </g>
    <g id="B">
      <rect x="267.623333333333" y="129.5675" rx="3" ry="3" width="50" height="25.96" fill="#FFFFFF" stroke="#A5A6A9" stroke-width="1" />
      <text x="288.623333333333" y="147.51749999999998" fill="#3D3D3D">B</text>
    </g>
    <g id="C">
      <rect x="359.623333333333" y="209.4675" rx="3" ry="3" width="50" height="25.96" fill="#FFFFFF" stroke="#A5A6A9" stroke-width="1" />
      <text x="380.623333333333" y="227.4175" fill="#3D3D3D">C</text>
    </g>
    <g id="CreateActor(&quot;A&quot;,Op)">
      <rect rx="3" ry="3" width="127.246666666667" height="25.96" fill="#FFFFFF" stroke="#A5A6A9" stroke-width="1" />
      <text x="10" y="17.950000000000003" fill="#3D3D3D">CreateActor("A", op)</text>
    </g>
    <g id="CurrentOperation==Op">
      <rect x="256.51" y="57.6475" rx="2" ry="2" width="150.226666666667" height="25.96" fill="#FFFACD" stroke="#E5C365" stroke-width="1" />
      <text x="266.51" y="75.5975" fill="#3D3D3D">CurrentOperation == op</text>
    </g>
    <g id="CurrentOperation==Op1">
      <rect x="348.51" y="129.5675" rx="2" ry="2" width="150.226666666667" height="25.96" fill="#FFFACD" stroke="#E5C365" stroke-width="1" />
      <text x="358.51" y="147.51749999999998" fill="#3D3D3D">CurrentOperation == op</text>
    </g>
    <g id="CurrentOperation==Op2">
      <rect x="157.51" rx="2" ry="2" width="150.226666666667" height="25.96" fill="#FFFACD" stroke="#E5C365" stroke-width="1" />
      <text x="167.51" y="17.950000000000003" fill="#3D3D3D">CurrentOperation == op</text>
    </g>
    <g id="CurrentOperation==OpWhenEventIsDequeued">
      <rect x="440.51" y="201.4875" rx="2" ry="2" width="150.226666666667" height="41.9200000000001" fill="#FFFACD" stroke="#E5C365" stroke-width="1" />
      <g>
        <text x="450.51" y="219.4375" fill="#3D3D3D">CurrentOperation == op
</text>
        <text x="450.51" y="235.3975" fill="#3D3D3D">when event is dequeued</text>
      </g>
    </g>
    <g id="D">
      <rect x="490.623333333333" y="289.3675" rx="3" ry="3" width="50" height="25.96" fill="#FFFFFF" stroke="#A5A6A9" stroke-width="1" />
      <text x="510.623333333333" y="307.3175" fill="#3D3D3D">D</text>
    </g>
  </g>
</svg>