<?xml version="1.0" encoding="utf-8"?>
<svg stroke-linecap="round" font-size="12" font-family="Segoe UI" width="467.601677652994" height="289.80039999999997" xmlns:xlink="http://www.w3.org/1999/xlink" xmlns="http://www.w3.org/2000/svg">
  <defs />
  <rect width="467.601677652994" height="289.80039999999997" fill="#FFFFFF" />
  <g transform="translate(30,-130.322990545909)">
    <g id="CartService-&gt;MockCheckoutService">
      <path d="M 172.830165774382,288.203190545909 L 205.724252630316,335.788182596093 A 252.958302656911,252.958302656911 3.14159265358979 0 0 212.531217649756,345.16831042954 A 107.942311014201,107.942311014201 3.14159265358979 0 0 220.026834742891,353.989954762494 L 222.967537424396,357.096637994043 A 232.114456426478,232.114456426478 3.14159265358979 0 0 231.3469769777,365.507347983786 A 50.3670817167094,50.3670817167094 3.14159265358979 0 0 240.776843218591,372.591927147121 L 245.575994839385,375.384340385996" fill="none" stroke="#A0A0A0" stroke-width="1" />
      <path d="M 253.355003356934,379.91060004314 L 246.723331518388,371.424085527402 C 246.246551825628,374.231894679692 244.905437853141,376.536786092299 242.699989600926,378.338759765224 z" fill="#A0A0A0" stroke="#A0A0A0" stroke-width="1" stroke-linejoin="round" />
    </g>
    <g id="CartService-&gt;MockInventoryService">
      <path d="M 207.920837198893,278.223190545909 L 214.896771625512,278.223190545909 L 240.229128705358,278.223190545909 L 257.363344319661,278.223190545909" fill="none" stroke="#A0A0A0" stroke-width="1" />
      <path d="M 266.363344319661,278.223190545909 L 256.363344319661,274.223190545909 C 257.363344319661,276.889857212576 257.363344319661,279.556523879242 256.363344319661,282.223190545909 z" fill="#A0A0A0" stroke="#A0A0A0" stroke-width="1" stroke-linejoin="round" />
    </g>
    <g id="CartService-&gt;MockPaymentService">
      <path d="M 191.559297563997,262.243190545909 L 221.338341369028,248.439166562411 A 72.9659749602624,72.9659749602624 0 0 1 243.747513180203,242.14364851234 A 167.163575460279,167.163575460279 3.14159265358979 0 0 266.870215396476,237.838093992608 L 279.667261327711,234.508989199634" fill="none" stroke="#A0A0A0" stroke-width="1" />
      <path d="M 288.377353364598,232.243090545909 L 277.69240725529,230.88960370032 C 279.33157263827,233.218605194169 280.002950017152,235.799373205099 279.706539391935,238.631907733109 z" fill="#A0A0A0" stroke="#A0A0A0" stroke-width="1" stroke-linejoin="round" />
    </g>
    <g id="CartService-&gt;MockRecommendationService">
      <path d="M 198.189222444048,288.203190545909 L 209.02527816932,291.00881913288 A 909.572954673251,909.572954673251 0 0 1 227.538632378317,296.011054248478 A 557.045032609977,557.045032609977 0 0 1 245.904338326303,301.524619252233 L 251.489550516873,303.306710056775 A 355.665264799953,355.665264799953 0 0 1 263.758251249152,307.469002477545 A 1356.10428418394,1356.10428418394 0 0 1 275.929900149722,311.912933434426 L 284.467293024359,315.076284574967" fill="none" stroke="#A0A0A0" stroke-width="1" />
      <path d="M 292.906595937378,318.203290545909 L 284.91937313222,310.978038172409 C 284.930553168202,313.826017476742 284.004032880515,316.326551673192 282.13981226916,318.479640761759 z" fill="#A0A0A0" stroke="#A0A0A0" stroke-width="1" stroke-linejoin="round" />
    </g>
    <g id="CartService-&gt;MockShippingService1">
      <path d="M 180.734118646454,262.243190545909 L 199.651280531148,245.730390763197 A 694.324285553157,694.324285553157 3.14159265358979 0 0 216.995798041046,230.068313391543 A 259.116817212062,259.116817212062 0 0 1 234.760107775803,214.915490943769 L 250.952961095676,202.318053539705 A 22.6132609493214,22.6132609493214 0 0 1 252.766684185415,201.044626938556 A 28.2338918470358,28.2338918470358 0 0 1 254.686457371535,199.935614326769 L 262.311986756882,195.921257248675 A 136.156428521245,136.156428521245 0 0 1 269.775991150104,192.278214256255 A 166.321844852105,166.321844852105 0 0 1 277.431697876192,189.054171513753 L 301.630013913502,179.567822046095" fill="none" stroke="#A0A0A0" stroke-width="1" />
      <path d="M 310.009147640528,176.282990545909 L 299.23907394375,176.20874388966 C 301.143372209771,178.32646890135 302.116655617233,180.80917519084 302.158924166137,183.656862758127 z" fill="#A0A0A0" stroke="#A0A0A0" stroke-width="1" stroke-linejoin="round" />
    </g>
    <g id="MockCheckoutService-&gt;CartService">
      <path d="M 254.147221351314,375.132208964745 L 244.162443059454,367.638371483 A 185.880984693677,185.880984693677 0 0 1 235.470815774928,360.699052822513 A 101.902420011686,101.902420011686 0 0 1 227.403992909026,353.059173077958 L 224.509477224454,350.001732554231 A 104.094734602221,104.094734602221 0 0 1 217.252469811012,341.458340939605 A 250.632702939077,250.632702939077 0 0 1 210.659530888945,332.375994367126 L 185.203186382282,295.603091571076" fill="none" stroke="#A0A0A0" stroke-width="1" />
      <path d="M 180.08054401552,288.203190545909 L 182.483523967404,298.702032736877 C 184.106904748924,296.362001551337 186.29946801564,294.844181590815 189.061213767552,294.148572855311 z" fill="#A0A0A0" stroke="#A0A0A0" stroke-width="1" stroke-linejoin="round" />
    </g>
    <g id="MockFrontEnd-&gt;CartService">
      <path d="M 87.16,276.17858227917 L 119.848126394922,275.794091240002" fill="none" stroke="#A0A0A0" stroke-width="1" />
      <path d="M 128.84750386556,275.688236901526 L 118.801149192195,271.806129512882 C 119.832444270703,274.460850133241 119.863808519141,277.127332346763 118.895241937507,279.80557615345 z" fill="#A0A0A0" stroke="#A0A0A0" stroke-width="1" stroke-linejoin="round" />
    </g>
    <g id="MockInventoryService-&gt;CartService">
      <path d="M 266.363344319661,272.223190545909 L 265.561485785203,272.223190545909 L 240.229128705358,272.223190545909 L 216.920837198893,272.223190545909" fill="none" stroke="#A0A0A0" stroke-width="1" />
      <path d="M 207.920837198893,272.223190545909 L 217.920837198893,276.223190545909 C 216.920837198893,273.556523879242 216.920837198893,270.889857212576 217.920837198893,268.223190545909 z" fill="#A0A0A0" stroke="#A0A0A0" stroke-width="1" stroke-linejoin="round" />
    </g>
    <g id="MockPaymentService-&gt;CartService">
      <path d="M 312.085228524287,232.243090545909 L 268.94047482129,243.487663443666 A 209.562105485211,209.562105485211 0 0 1 245.196112494422,248.230451848989 A 90.8612055938334,90.8612055938334 3.14159265358979 0 0 222.039409490462,254.689850922201 L 212.67908804295,258.699413266559" fill="none" stroke="#A0A0A0" stroke-width="1" />
      <path d="M 204.406141615324,262.243190545909 L 215.173316436841,261.982525314465 C 213.204092084335,259.925034959541 212.154084001564,257.473791573578 212.02329218853,254.628795156576 z" fill="#A0A0A0" stroke="#A0A0A0" stroke-width="1" stroke-linejoin="round" />
    </g>
    <g id="MockRecommendationService-&gt;CartService">
      <path d="M 310.153365570945,318.203290545909 L 278.694565171996,306.538827875883 A 1180.7299035481,1180.7299035481 3.14159265358979 0 0 265.745642177886,301.82332784096 A 407.362811082786,407.362811082786 3.14159265358979 0 0 252.69445035373,297.404155479693 L 247.335781559375,295.690152739055 A 524.894427752775,524.894427752775 3.14159265358979 0 0 229.183872286776,290.243354737138 A 1022.69711120702,1022.69711120702 3.14159265358979 0 0 216.625604661449,286.806935647145" fill="none" stroke="#A0A0A0" stroke-width="1" />
      <path d="M 207.920837198893,284.52066719772 L 216.576681735322,290.929751013773 C 216.286898224497,288.096530826783 216.964311098401,285.517340467507 218.608920357033,283.192179935945 z" fill="#A0A0A0" stroke="#A0A0A0" stroke-width="1" stroke-linejoin="round" />
    </g>
    <g id="MockShippingService1-&gt;CartService">
      <path d="M 293.573701243945,176.282990545909 L 273.856029483752,184.016105223835 A 147.802331271365,147.802331271365 3.14159265358979 0 0 267.282980393316,186.778732995479 A 114.366373307459,114.366373307459 3.14159265358979 0 0 260.873902848886,189.8997901558 L 255.544100859347,192.704036069695 A 83.4793159510111,83.4793159510111 3.14159265358979 0 0 249.81544843996,196.014409028174 A 67.6678771484523,67.6678771484523 3.14159265358979 0 0 244.404120611139,199.81673824152 L 230.557745437325,210.594017216758 A 256.856921041068,256.856921041068 3.14159265358979 0 0 213.026117325767,225.549621287183 A 743.213633637052,743.213633637052 0 0 1 195.925851564233,241.027075016571 L 178.506927526619,256.307995089541" fill="none" stroke="#A0A0A0" stroke-width="1" />
      <path d="M 171.741319283844,262.243190545909 L 181.896526423091,258.655465924511 C 179.386215742377,257.310307421804 177.627639310861,255.305682757278 176.620797128541,252.641591930933 z" fill="#A0A0A0" stroke="#A0A0A0" stroke-width="1" stroke-linejoin="round" />
    </g>
    <g id="CartService">
      <rect x="128.84750386556" y="262.243190545909" rx="3" ry="3" width="79.0733333333334" height="25.96" fill="#FFFFFF" stroke="#A5A6A9" stroke-width="1" />
      <text x="138.84750386556" y="280.193190545909" fill="#3D3D3D">CartService</text>
    </g>
    <g id="MockCheckoutService">
      <rect x="253.355003356934" y="374.163390545909" rx="3" ry="3" width="136.5" height="25.96" fill="#55BF6F" stroke="#A5A6A9" stroke-width="1" />
      <text x="263.355003356934" y="392.113390545909" fill="#000000">MockCheckoutService</text>
    </g>
    <g id="MockFrontEnd">
      <rect x="-9.99999999999999" y="263.77" rx="3" ry="3" width="97.16" height="25.96" fill="#55BF6F" stroke="#A5A6A9" stroke-width="1" />
      <text x="1.0658141036401503E-14" y="281.71999999999997" fill="#000000">MockFrontEnd</text>
    </g>
    <g id="MockInventoryService">
      <rect x="266.363344319661" y="262.243190545909" rx="3" ry="3" width="136.483333333333" height="25.96" fill="#55BF6F" stroke="#A5A6A9" stroke-width="1" />
      <text x="276.363344319661" y="280.193190545909" fill="#000000">MockInventoryService</text>
    </g>
    <g id="MockPaymentService">
      <rect x="268.453344319661" y="206.283090545909" rx="3" ry="3" width="132.303333333333" height="25.96" fill="#55BF6F" stroke="#A5A6A9" stroke-width="1" />
      <text x="278.453344319661" y="224.233090545909" fill="#000000">MockPaymentService</text>
    </g>
    <g id="MockRecommendationService">
      <rect x="237.608344319661" y="318.203290545909" rx="3" ry="3" width="179.993333333333" height="25.96" fill="#55BF6F" stroke="#A5A6A9" stroke-width="1" />
      <text x="247.608344319661" y="336.153290545909" fill="#000000">MockRecommendationService</text>
    </g>
    <g id="MockShippingService1">
      <rect x="257.82998046875" y="150.322990545909" rx="3" ry="3" width="133.55" height="25.96" fill="#55BF6F" stroke="#A5A6A9" stroke-width="1" />
      <text x="267.82998046875" y="168.27299054590898" fill="#000000">MockShippingService</text>
    </g>
  </g>
</svg>