<?xml version="1.0" encoding="utf-8"?>
<svg stroke-linecap="round" font-size="12" font-family="Segoe UI" width="533.39667068451422" height="545.54688113888892" xmlns:xlink="http://www.w3.org/1999/xlink" xmlns="http://www.w3.org/2000/svg">
  <defs />
  <rect width="533.39667068451422" height="545.54688113888892" fill="#FFFFFF" />
  <g transform="translate(-13.9999788411458,-7.0000025390624)">
    <path d="M 302.433213970238,292.84 L 289.23554745728,305.578087725054 L 262.31858067292,332.083611546785 L 222.108936291874,366.74789244405" fill="none" stroke="#A0A0A0" stroke-width="1" />
    <path d="M 215.123312174479,372.422489847432 L 225.407160039754,369.222103451405 C 222.949617388671,367.782799720701 221.268255195076,365.712985167399 220.36307345897,363.012659791499 z" fill="#A0A0A0" stroke="#A0A0A0" stroke-width="1" stroke-linejoin="round" />
    <path d="M 317.17565503587,292.84 L 325.007101434222,301.995231530591 L 339.545296753642,318.33580092568" fill="none" stroke="#A0A0A0" stroke-width="1" />
    <path d="M 345.593910098394,325.000204620362 L 341.835185801861,314.907039028604 C 340.532615819521,317.439710059791 338.557977687763,319.23189179157 335.911271406589,320.283584223939 z" fill="#A0A0A0" stroke="#A0A0A0" stroke-width="1" stroke-linejoin="round" />
    <path d="M 307.088970881102,266.88 L 305.097397272694,255.993007185408 L 300.069089654275,233.350206787741" fill="none" stroke="#A0A0A0" stroke-width="1" />
    <path d="M 297.026229377564,224.880200805664 L 296.642738137431,235.643700908732 C 298.814273953227,233.801000902809 301.323905355324,232.899412672672 304.171632343722,232.938936218322 z" fill="#A0A0A0" stroke="#A0A0A0" stroke-width="1" stroke-linejoin="round" />
    <path d="M 215.123312174479,364.677409358019 L 233.318655266127,349.911806928639 L 260.897105224478,325.191411105275 L 287.317792682193,299.090211133394" fill="none" stroke="#A0A0A0" stroke-width="1.5" />
    <path d="M 293.793505831182,292.84 L 283.82039738413,296.906584304221 C 286.391835477246,298.130846222433 288.243749887141,300.049576044356 289.376140613814,302.662773769989 z" fill="#A0A0A0" stroke="#A0A0A0" stroke-width="1" stroke-linejoin="round" />
    <path d="M 353.478717214827,325.000204620362 L 343.200390553919,313.429375770745" fill="none" stroke="#A0A0A0" stroke-width="1" />
    <path d="M 325.043777811758,292.84 L 328.537764774383,303.027838588484 C 329.905999924769,300.530030812782 331.926745626707,298.790002675306 334.6000018802,297.807754176058 z" fill="#A0A0A0" stroke="#A0A0A0" stroke-width="1" stroke-linejoin="round" />
    <path d="M 303.482281442503,224.880200805664 L 307.598818337101,236.765050884 L 311.560661088258,258.023069654735" fill="none" stroke="#A0A0A0" stroke-width="1" />
    <path d="M 313.159030525882,266.88 L 315.319477970862,256.328579866318 C 312.872798917186,257.786274182495 310.24852325933,258.259865126976 307.446650997294,257.749352699761 z" fill="#A0A0A0" stroke="#A0A0A0" stroke-width="1" stroke-linejoin="round" />
    <rect x="33.999978841145804" y="333.66645489377186" rx="5" ry="5" width="181.123333333333" height="198.88042878417946" fill="#EEEEEE" stroke="#A5A6A9" stroke-width="1" />
    <text x="53.999978841145804" y="351.61645489377185" fill="#000000">Raft.AzureClient.dll (Client)</text>
    <rect x="38.999978841145804" y="361.62645489377184" width="171.123333333333" height="165.92042878417945" fill="#FFFFFF" stroke="#A5A6A9" stroke-width="1" />
    <path d="M 124.647860646876,399.626554893772 L 124.79399017526,421.626882203235" fill="none" stroke="#A0A0A0" stroke-width="1" />
    <path d="M 124.853768228857,430.626683677951 L 128.787259935845,420.600336237779 C 126.12729409744,421.618026195295 123.46068625308,421.635738211175 120.787436402764,420.65347228542 z" fill="#A0A0A0" stroke="#A0A0A0" stroke-width="1" stroke-linejoin="round" />
    <path d="M 124.852234609322,456.586683677951 L 124.710266138518,477.586989328658" fill="none" stroke="#A0A0A0" stroke-width="1" />
    <path d="M 124.649424783989,486.586783677951 L 128.716934888707,476.614052780749 C 126.04356900508,477.596002862662 123.376963271956,477.577975794653 120.717117689335,476.559971576723 z" fill="#A0A0A0" stroke="#A0A0A0" stroke-width="1" stroke-linejoin="round" />
    <rect x="57.3416760253906" y="486.5867836779513" rx="3" ry="3" width="134.44" height="25.960000000000036" fill="#FFFFFF" stroke="#A5A6A9" stroke-width="1" />
    <text x="67.3416760253906" y="504.53678367795129" fill="#3D3D3D">AzureClusterManager</text>
    <rect x="53.999978841145804" y="373.66655489377183" rx="3" ry="3" width="141.123333333333" height="25.960000000000036" fill="#FFFFFF" stroke="#A5A6A9" stroke-width="1" />
    <text x="63.999978841145804" y="391.61655489377182" fill="#3D3D3D">AzureMessageReceiver</text>
    <rect x="89.373316701253245" y="430.62668367795118" rx="3" ry="3" width="71.13333333333334" height="25.960000000000036" fill="#FFFFFF" stroke="#A5A6A9" stroke-width="1" />
    <text x="99.373316701253245" y="448.57668367795117" fill="#3D3D3D">RunClient</text>
    <rect x="334.123316192327" y="325.000002539063" rx="5" ry="5" width="193.273333333333" height="197.880404162598" fill="#EEEEEE" stroke="#A5A6A9" stroke-width="1" />
    <text x="353.123316192327" y="342.950002539063" fill="#000000">Raft.AzureClient.dll (Server 1)</text>
    <rect x="339.123316192327" y="352.960002539063" width="183.273333333333" height="164.920404162598" fill="#FFFFFF" stroke="#A5A6A9" stroke-width="1" />
    <path d="M 430.759982858994,390.960204620362 L 430.759982858994,411.960204620362" fill="none" stroke="#A0A0A0" stroke-width="1" />
    <path d="M 430.759982858994,420.960204620362 L 434.759982858994,410.960204620362 C 432.093316192327,411.960204620362 429.42664952566,411.960204620362 426.759982858994,410.960204620362 z" fill="#A0A0A0" stroke="#A0A0A0" stroke-width="1" stroke-linejoin="round" />
    <path d="M 430.759982858994,446.920204620362 L 430.759982858994,467.920204620362" fill="none" stroke="#A0A0A0" stroke-width="1" />
    <path d="M 430.759982858994,476.920204620362 L 434.759982858994,466.920204620362 C 432.093316192327,467.920204620362 429.42664952566,467.920204620362 426.759982858994,466.920204620362 z" fill="#A0A0A0" stroke="#A0A0A0" stroke-width="1" stroke-linejoin="round" />
    <rect x="363.540013400572" y="476.92030670166" rx="3" ry="3" width="134.44" height="25.96" fill="#FFFFFF" stroke="#A5A6A9" stroke-width="1" />
    <text x="373.540013400572" y="494.87030670166" fill="#3D3D3D">AzureClusterManager</text>
    <rect x="360.198316192327" y="365.000102539063" rx="3" ry="3" width="141.123333333333" height="25.96" fill="#FFFFFF" stroke="#A5A6A9" stroke-width="1" />
    <text x="370.198316192327" y="382.950102539063" fill="#3D3D3D">AzureMessageReceiver</text>
    <rect x="404.249982920794" y="420.960231323242" rx="3" ry="3" width="53.02" height="25.96" fill="#FFFFFF" stroke="#A5A6A9" stroke-width="1" />
    <text x="414.249982920794" y="438.910231323242" fill="#3D3D3D">Server</text>
    <rect x="144.39664952056" y="27.0000025390624" rx="5" ry="5" width="193.273333333334" height="197.880396533203" fill="#EEEEEE" stroke="#A5A6A9" stroke-width="1" />
    <text x="164.39664952056" y="44.9500025390624" fill="#000000">Raft.AzureClient.dll (Server 2)</text>
    <rect x="149.39664952056" y="54.9600025390624" width="183.273333333334" height="164.920396533203" fill="#FFFFFF" stroke="#A5A6A9" stroke-width="1" />
    <path d="M 241.033316187227,92.9602008056639 L 241.033316187227,113.960200805664" fill="none" stroke="#A0A0A0" stroke-width="1" />
    <path d="M 241.033316187227,122.960200805664 L 245.033316187227,112.960200805664 C 242.36664952056,113.960200805664 239.699982853894,113.960200805664 237.033316187227,112.960200805664 z" fill="#A0A0A0" stroke="#A0A0A0" stroke-width="1" stroke-linejoin="round" />
    <path d="M 241.033316187227,148.920200805664 L 241.033316187227,169.920200805664" fill="none" stroke="#A0A0A0" stroke-width="1" />
    <path d="M 241.033316187227,178.920200805664 L 245.033316187227,168.920200805664 C 242.36664952056,169.920200805664 239.699982853894,169.920200805664 237.033316187227,168.920200805664 z" fill="#A0A0A0" stroke="#A0A0A0" stroke-width="1" stroke-linejoin="round" />
    <rect x="173.813392481172" y="178.920299072266" rx="3" ry="3" width="134.44" height="25.96" fill="#FFFFFF" stroke="#A5A6A9" stroke-width="1" />
    <text x="183.813392481172" y="196.870299072266" fill="#3D3D3D">AzureClusterManager</text>
    <rect x="170.47164952056" y="67.0001025390626" rx="3" ry="3" width="141.123333333333" height="25.96" fill="#FFFFFF" stroke="#A5A6A9" stroke-width="1" />
    <text x="180.47164952056" y="84.9501025390626" fill="#3D3D3D">AzureMessageReceiver</text>
    <rect x="214.523346704805" y="122.960200805664" rx="3" ry="3" width="53.0199999999999" height="25.96" fill="#FFFFFF" stroke="#A5A6A9" stroke-width="1" />
    <text x="224.523346704805" y="140.910200805664" fill="#3D3D3D">Server</text>
    <rect x="254.955" y="266.88" rx="3" ry="3" width="113.213333333333" height="25.96" fill="#FFFFFF" stroke="#A5A6A9" stroke-width="1" />
    <text x="264.95500000000004" y="284.83" fill="#3D3D3D">Azure Service bus</text>
  </g>
</svg>