<?xml version="1.0" encoding="utf-8"?>
<svg stroke-linecap="round" font-size="12" font-family="Segoe UI" width="604.85001007050028" height="476.09798931527274" xmlns:xlink="http://www.w3.org/1999/xlink" xmlns="http://www.w3.org/2000/svg">
  <defs />
  <rect width="604.85001007050028" height="476.09798931527274" fill="#FFFFFF" />
  <g transform="translate(5.52836054484035,-13.7824173863873)">
    <g id="AzureServiceBus-&gt;Raft.AzureClient.dll">
      <path d="M 307.722983881979,267.662959594727 L 308.034798293784,258.610980825127 A 477.121334998344,477.121334998344 3.14159265358979 0 0 308.247819834489,250.34644203675 A 1066.87085616586,1066.87085616586 3.14159265358979 0 0 308.357205760152,242.079633784949 L 308.361109105136,241.662465750746" fill="none" stroke="#A0A0A0" stroke-width="1" />
      <path d="M 308.445316341242,232.662859695958 L 304.351927832329,242.624996540787 C 307.027834134056,241.649990604656 309.694384076216,241.674940896836 312.351577658808,242.699847417326 z" fill="#A0A0A0" stroke="#A0A0A0" stroke-width="1" stroke-linejoin="round" />
    </g>
    <g id="AzureServiceBus-&gt;Raft.AzureClient.dll(Server)">
      <path d="M 346.564141521842,293.622959594727 L 370.917294149744,302.814667619877 A 209.548389378654,209.548389378654 3.14159265358979 0 0 379.606966141385,305.877933106749 A 80.726006788566,80.726006788566 0 0 1 388.172141496713,309.239029245665 L 390.021267717885,310.089249374707" fill="none" stroke="#A0A0A0" stroke-width="1" />
      <path d="M 398.198316192327,313.84902041117 L 390.783716125819,306.037253270904 C 390.578270834398,308.877834785901 389.464264601372,311.300663963514 387.441697426741,313.305740803741 z" fill="#A0A0A0" stroke="#A0A0A0" stroke-width="1" stroke-linejoin="round" />
    </g>
    <g id="AzureServiceBus-&gt;Raft.AzureClient.dll(Server2)">
      <path d="M 279.055786396318,293.622959594727 L 242.403838904127,308.141149099994 A 1965.84811154589,1965.84811154589 3.14159265358979 0 0 227.662397423292,314.049375160186 A 1965.84811154552,1965.84811154552 3.14159265358979 0 0 212.969166936393,320.076498020226 L 203.907798754373,323.836278083934" fill="none" stroke="#A0A0A0" stroke-width="1" />
      <path d="M 195.594972788493,327.28546994015 L 206.364420242233,327.147623862524 C 204.418790140479,325.067807856658 203.396807368267,322.604748311211 203.298471925597,319.758445226186 z" fill="#A0A0A0" stroke="#A0A0A0" stroke-width="1" stroke-linejoin="round" />
    </g>
    <g id="Raft.AzureClient.dll-&gt;AzureServiceBus">
      <path d="M 302.441185434324,232.662859695958 L 302.352759782367,242.641316269585 A 1126.43942579751,1126.43942579751 0 0 1 302.259923790078,250.231336102463 A 364.680373196237,364.680373196237 0 0 1 302.062548216663,257.818989008281 L 302.031585164733,258.668925753586" fill="none" stroke="#A0A0A0" stroke-width="1.5" />
      <path d="M 301.703934032546,267.662959594727 L 306.065339219927,257.815211385542 C 303.364034622679,258.717466662058 300.699135706786,258.620384845114 298.070642472247,257.52396593471 z" fill="#A0A0A0" stroke="#A0A0A0" stroke-width="1" stroke-linejoin="round" />
    </g>
    <g id="Raft.AzureClient.dll(Server)-&gt;AzureServiceBus">
      <path d="M 398.198316192327,320.550166024332 L 386.103830466368,314.871265877923 A 73.24332979758,73.24332979758 3.14159265358979 0 0 377.521459126899,311.48350995642 A 192.67802449544,192.67802449544 0 0 1 368.798579561329,308.428137891718 L 337.992912501931,296.801031477349" fill="none" stroke="#A0A0A0" stroke-width="1" />
      <path d="M 329.57270709417,293.622959594727 L 337.516014488295,300.896464089978 C 337.522087037839,298.048469315535 338.463737966023,295.553593639162 340.340967272847,293.411837060857 z" fill="#A0A0A0" stroke="#A0A0A0" stroke-width="1" stroke-linejoin="round" />
    </g>
    <g id="Raft.AzureClient.dll(Server2)-&gt;AzureServiceBus">
      <path d="M 195.594972788493,320.78948407185 L 210.669705698916,314.534614042973 A 1971.84811154367,1971.84811154367 0 0 1 225.407781656024,308.489095694008 A 1971.84811154531,1971.84811154531 0 0 1 240.1942157527,302.562837031933 L 254.395947363577,296.937394321867" fill="none" stroke="#A0A0A0" stroke-width="1" />
      <path d="M 262.763415465669,293.622959594727 L 251.993146584615,293.586790135064 C 253.904919996593,295.697769417853 254.886974730561,298.177019225881 254.939310786518,301.024539559146 z" fill="#A0A0A0" stroke="#A0A0A0" stroke-width="1" stroke-linejoin="round" />
    </g>
    <g id="Raft.AzureClient.dll">
      <rect x="210.99996358235694" y="33.782417386387294" rx="5" ry="5" width="181.123333333333" height="198.88044230957036" fill="#EEEEEE" stroke="#A5A6A9" stroke-width="1" />
      <text x="245.99996358235694" y="51.7324173863873" fill="#000000">Raft.Azure.dll (Client)</text>
      <rect x="215.99996358235694" y="61.742417386387295" width="171.123333333333" height="165.92044230957035" fill="#FFFFFF" stroke="#A5A6A9" stroke-width="1" />
      <g id="AzureMessageReceiver-&gt;Client">
        <path d="M 301.647849896207,99.7425274658203 L 301.793986356229,121.742747984521" fill="none" stroke="#A0A0A0" stroke-width="1" />
        <path d="M 301.853767535434,130.742549438477 L 305.787255760297,120.716200632213 C 303.127290275333,121.733891513528 300.460682437124,121.751604455515 297.78743224567,120.769339458173 z" fill="#A0A0A0" stroke="#A0A0A0" stroke-width="1" stroke-linejoin="round" />
      </g>
      <g id="Client-&gt;AzureClusterManager1">
        <path d="M 301.852237775747,156.702549438477 L 301.710267236255,177.703005946714" fill="none" stroke="#A0A0A0" stroke-width="1" />
        <path d="M 301.649425432261,186.702800292969 L 305.716936035034,176.730069598905 C 303.043570102367,177.712019547305 300.376964370143,177.693992346122 297.717118838363,176.675987995355 z" fill="#A0A0A0" stroke="#A0A0A0" stroke-width="1" stroke-linejoin="round" />
      </g>
      <g id="AzureClusterManager1">
        <rect x="234.34167602539063" y="186.70280029296873" rx="3" ry="3" width="134.44000000000003" height="25.960000000000036" fill="#FFFFFF" stroke="#A5A6A9" stroke-width="1" />
        <text x="244.34167602539063" y="204.65280029296872" fill="#3D3D3D">AzureClusterManager</text>
      </g>
      <g id="AzureMessageReceiver">
        <rect x="230.99996358235697" y="73.7825274658203" rx="3" ry="3" width="141.12333333333297" height="25.960000000000036" fill="#FFFFFF" stroke="#A5A6A9" stroke-width="1" />
        <text x="240.99996358235697" y="91.7325274658203" fill="#3D3D3D">AzureMessageReceiver</text>
      </g>
      <g id="Client">
        <rect x="266.37332051595052" y="130.74254943847654" rx="3" ry="3" width="71.133333333333269" height="25.960000000000036" fill="#FFFFFF" stroke="#A5A6A9" stroke-width="1" />
        <text x="276.37332051595052" y="148.69254943847653" fill="#3D3D3D">RunClient</text>
      </g>
    </g>
    <g id="Raft.AzureClient.dll(Server)">
      <rect x="398.19831619232696" y="272.00000253906308" rx="5" ry="5" width="181.123333333333" height="197.88040416259696" fill="#EEEEEE" stroke="#A5A6A9" stroke-width="1" />
      <text x="427.19831619232696" y="289.95000253906306" fill="#000000">Raft.Azure.dll (Server 1)</text>
      <rect x="403.19831619232696" y="299.96000253906305" width="171.123333333333" height="164.92040416259695" fill="#FFFFFF" stroke="#A5A6A9" stroke-width="1" />
      <g id="AzureMessageReceiver1-&gt;Server">
        <path d="M 488.75999730278,337.960194447828 L 488.75999730278,358.960191209159" fill="none" stroke="#A0A0A0" stroke-width="1" />
        <path d="M 488.75999730278,367.960189821158 L 492.75999730278,357.960189821158 C 490.093330636113,358.960191209159 487.426663969446,358.960191209159 484.75999730278,357.960189821158 z" fill="#A0A0A0" stroke="#A0A0A0" stroke-width="1" stroke-linejoin="round" />
      </g>
      <g id="Server-&gt;AzureClusterManager">
        <path d="M 488.75999730278,393.920185817546 L 488.75999730278,414.920182578877" fill="none" stroke="#A0A0A0" stroke-width="1" />
        <path d="M 488.75999730278,423.920181190876 L 492.75999730278,413.920181190876 C 490.093330636113,414.920182578877 487.426663969446,414.920182578877 484.75999730278,413.920181190876 z" fill="#A0A0A0" stroke="#A0A0A0" stroke-width="1" stroke-linejoin="round" />
      </g>
      <g id="AzureClusterManager">
        <rect x="421.53997924804679" y="423.92031433105467" rx="3" ry="3" width="134.44000000000011" height="25.960000000000036" fill="#FFFFFF" stroke="#A5A6A9" stroke-width="1" />
        <text x="431.53997924804679" y="441.87031433105466" fill="#3D3D3D">AzureClusterManager</text>
      </g>
      <g id="AzureMessageReceiver1">
        <rect x="418.19831258138032" y="312.00010253906248" rx="3" ry="3" width="141.12333333333305" height="25.960000000000036" fill="#FFFFFF" stroke="#A5A6A9" stroke-width="1" />
        <text x="428.19831258138032" y="329.95010253906247" fill="#3D3D3D">AzureMessageReceiver</text>
      </g>
      <g id="Server">
        <rect x="462.250009765625" y="367.96023132324217" rx="3" ry="3" width="53.019999999999982" height="25.960000000000036" fill="#FFFFFF" stroke="#A5A6A9" stroke-width="1" />
        <text x="472.250009765625" y="385.91023132324216" fill="#3D3D3D">Server</text>
      </g>
    </g>
    <g id="Raft.AzureClient.dll(Server2)">
      <rect x="14.471639455159647" y="266.6230585403589" rx="5" ry="5" width="181.12333333333302" height="197.8804" fill="#EEEEEE" stroke="#A5A6A9" stroke-width="1" />
      <text x="43.471639455159647" y="284.57305854035889" fill="#000000">Raft.Azure.dll (Server 2)</text>
      <rect x="19.471639455159647" y="294.58305854035888" width="171.12333333333302" height="164.9204" fill="#FFFFFF" stroke="#A5A6A9" stroke-width="1" />
      <g id="AzureMessageReceiver2-&gt;Server1">
        <path d="M 105.033317565918,332.583278959704 L 105.033317565918,353.583280063442" fill="none" stroke="#A0A0A0" stroke-width="1" />
        <path d="M 105.033317565918,362.583280536473 L 109.033317565918,352.583280536473 C 106.366650899251,353.583280063442 103.699984232585,353.583280063442 101.033317565918,352.583280536473 z" fill="#A0A0A0" stroke="#A0A0A0" stroke-width="1" stroke-linejoin="round" />
      </g>
      <g id="Server1-&gt;AzureClusterManager2">
        <path d="M 105.033317565918,388.543281900904 L 105.033317565918,409.543283004643" fill="none" stroke="#A0A0A0" stroke-width="1" />
        <path d="M 105.033317565918,418.543283477673 L 109.033317565918,408.543283477673 C 106.366650899251,409.543283004643 103.699984232585,409.543283004643 101.033317565918,408.543283477673 z" fill="#A0A0A0" stroke="#A0A0A0" stroke-width="1" stroke-linejoin="round" />
      </g>
      <g id="AzureClusterManager2">
        <rect x="37.813370971679689" y="418.54336120605467" rx="3" ry="3" width="134.44" height="25.960000000000036" fill="#FFFFFF" stroke="#A5A6A9" stroke-width="1" />
        <text x="47.813370971679689" y="436.49336120605466" fill="#3D3D3D">AzureClusterManager</text>
      </g>
      <g id="AzureMessageReceiver2">
        <rect x="34.471628011067878" y="306.62316467285154" rx="3" ry="3" width="141.123333333333" height="25.960000000000036" fill="#FFFFFF" stroke="#A5A6A9" stroke-width="1" />
        <text x="44.471628011067878" y="324.57316467285153" fill="#3D3D3D">AzureMessageReceiver</text>
      </g>
      <g id="Server1">
        <rect x="78.523340454101628" y="362.58326293945311" rx="3" ry="3" width="53.019999999999868" height="25.960000000000036" fill="#FFFFFF" stroke="#A5A6A9" stroke-width="1" />
        <text x="88.523340454101628" y="380.5332629394531" fill="#3D3D3D">Server</text>
      </g>
    </g>
    <g id="AzureServiceBus">
      <rect x="247.15831258216363" y="267.66295959472654" rx="3" ry="3" width="113.03999999999999" height="25.960000000000036" fill="#FFFFFF" stroke="#A5A6A9" stroke-width="1" />
      <text x="257.1583125821636" y="285.61295959472653" fill="#3D3D3D">Azure Service Bus</text>
    </g>
  </g>
</svg>