<?xml version="1.0" encoding="utf-8"?>
<svg stroke-linecap="round" font-size="12" font-family="Segoe UI" width="905.76414471997964" height="621.05500000000029" xmlns:xlink="http://www.w3.org/1999/xlink" xmlns="http://www.w3.org/2000/svg">
  <defs />
  <rect width="905.76414471997964" height="621.05500000000029" fill="#FFFFFF" />
  <g transform="translate(20,20)">
    <g id="ExternalCode-&gt;Microsoft.Coyote.Samples.CloudMessaging.Server">
      <path d="M 549.176666666667,66.97195086478 L 563.826666666667,72.391875 C 616.826666666667,91.9997916666666 643.326666666667,121.411666666667 643.326666666667,160.6275 C 643.326666666667,181.902617769245 641.855062348115,203.820152140385 638.911853711012,226.380103113419" fill="none" stroke="#A0A0A0" stroke-width="1" />
      <path d="M 637.677101306021,235.295 L 643.011224816713,225.938337861573 C 640.23257917569,226.56302939564 637.591128246333,226.197176831198 635.086872028642,224.840780168248 z" fill="#A0A0A0" stroke="#A0A0A0" stroke-width="1" stroke-linejoin="round" />
    </g>
    <g id="ExternalCode-&gt;Microsoft.Coyote.Samples.CloudMessaging.MockClusterManager">
      <path d="M 460.945634345538,85.96 L 448.008490354583,109.741603869936" fill="none" stroke="#A0A0A0" stroke-width="1.5" />
      <path d="M 443.707698987796,117.6475 L 452.000087675366,110.774633796278 C 449.179734225704,110.378758146497 446.837246483462,109.104449593375 444.972624448642,106.951708136912 z" fill="#A0A0A0" stroke="#A0A0A0" stroke-width="1" stroke-linejoin="round" />
    </g>
    <g id="Microsoft.Coyote.Samples.CloudMessaging.MockClient-&gt;Microsoft.Coyote.Samples.CloudMessaging.MockClusterManager">
      <path d="M 198.158123855647,307.215 L 215.262774517432,284.823125 C 239.8698287382,252.609775945133 269.508379678104,226.945364006088 304.178427337147,207.829889182866" fill="none" stroke="#A0A0A0" stroke-width="1" />
      <path d="M 312.126472982991,203.6075 L 301.418693739668,204.766578805032 C 303.552888198945,206.652400939038 304.803966475349,209.007377426695 305.171928568883,211.831508268004 z" fill="#A0A0A0" stroke="#A0A0A0" stroke-width="1" stroke-linejoin="round" />
    </g>
    <g id="Microsoft.Coyote.Samples.CloudMessaging.MockClusterManager-&gt;Microsoft.Coyote.Samples.CloudMessaging.Server">
      <path d="M 514.469809431804,203.6075 C 526.397654862957,210.935592818241 537.152956283905,219.334157585175 546.735713694648,228.803194300801" fill="none" stroke="#A0A0A0" stroke-width="2.8502198590705463" />
      <path d="M 552.96920860231,235.295 L 548.928350126774,225.311440375262 C 547.697462687122,227.87971357374 545.773964702174,229.726675027862 543.157856171931,230.852324737628 z" fill="#A0A0A0" stroke="#A0A0A0" stroke-width="1" stroke-linejoin="round" />
    </g>
    <g id="Microsoft.Coyote.Samples.CloudMessaging.MockClusterManager-&gt;Microsoft.Coyote.Samples.CloudMessaging.MockClient">
      <path d="M 362.511376598485,203.6075 L 230.364767199105,301.845548538498" fill="none" stroke="#A0A0A0" stroke-width="1" />
      <path d="M 223.141956734848,307.215 L 233.553724566912,304.459080804668 C 231.160241489698,302.915594533203 229.569292908512,300.775502543794 228.780878823355,298.03880483644 z" fill="#A0A0A0" stroke="#A0A0A0" stroke-width="1" stroke-linejoin="round" />
    </g>
    <g id="Microsoft.Coyote.Samples.CloudMessaging.Server-&gt;Microsoft.Coyote.Samples.CloudMessaging.MockClusterManager">
      <path d="M 496.346171592353,235.295 L 470.505707604405,209.914107994636" fill="none" stroke="#A0A0A0" stroke-width="2.5" />
      <path d="M 464.08490581631,203.6075 L 468.416193138799,213.468531899859 C 469.571395308903,210.865337889168 471.440019899906,208.962878100103 474.022066911809,207.761152532664 z" fill="#A0A0A0" stroke="#A0A0A0" stroke-width="1" stroke-linejoin="round" />
    </g>
    <g id="Microsoft.Coyote.TestingServices.Timers.MockStateMachineTimer-&gt;Microsoft.Coyote.Samples.CloudMessaging.Server">
      <path d="M 197.326666666667,85.96 L 197.326666666667,153.27453125 C 197.326666666667,197.247420227949 248.98559601513,235.541862831423 352.303454712058,268.157859060421" fill="none" stroke="#A0A0A0" stroke-width="2.292481250360578" />
      <path d="M 360.889188613354,270.85696509319 L 352.549086959811,264.042076656204 C 352.703322272468,266.885898482451 351.903587151647,269.429819638391 350.149881597349,271.673840124023 z" fill="#A0A0A0" stroke="#A0A0A0" stroke-width="1" stroke-linejoin="round" />
    </g>
    <g id="Microsoft.Coyote.TestingServices.Timers.MockStateMachineTimer-&gt;Microsoft.Coyote.Samples.CloudMessaging.MockClusterManager">
      <path d="M 278.7949511606,85.96 L 330.8982277785,113.447983120648" fill="none" stroke="#A0A0A0" stroke-width="1" />
      <path d="M 338.858382172734,117.6475 L 331.88021812552,109.443523736616 C 331.520378427293,112.268700988169 330.276077129707,114.627265253127 328.147314232762,116.51921653149 z" fill="#A0A0A0" stroke="#A0A0A0" stroke-width="1" stroke-linejoin="round" />
    </g>
    <g id="Microsoft.Coyote.TestingServices.Timers.MockStateMachineTimer-&gt;Microsoft.Coyote.Samples.CloudMessaging.MockClient">
      <path d="M 176.11083902155,85.9600000000003 C 168.921390784961,111.344702157454 165.326666666667,158.024493824121 165.326666666667,225.999375 L 165.326666666667,298.215" fill="none" stroke="#A0A0A0" stroke-width="1.5" />
      <path d="M 165.326666666667,307.215 L 169.326666666667,297.215 C 166.66,298.215 163.993333333333,298.215 161.326666666667,297.215 z" fill="#A0A0A0" stroke="#A0A0A0" stroke-width="1" stroke-linejoin="round" />
    </g>
    <g id="ExternalCode">
      <rect x="419.4766666666668" rx="5" ry="5" width="129.69999999999982" height="85.960000000000036" fill="#65C767" stroke="#A5A6A9" stroke-width="1" />
      <text x="448.4766666666668" y="17.950000000000003" fill="#000000">ExternalCode</text>
      <rect x="424.4766666666668" y="27.96" width="119.69999999999982" height="53.000000000000036" fill="#FFFFFF" stroke="#A5A6A9" stroke-width="1" />
      <g id="ExternalCode.ExternalCode">
        <rect x="439.4766666666668" y="40" rx="3" ry="3" width="89.699999999999932" height="25.960000000000008" fill="#FFFFFF" stroke="#A5A6A9" stroke-width="1" />
        <text x="449.4766666666668" y="57.95" fill="#3D3D3D">ExternalCode</text>
      </g>
    </g>
    <g id="Microsoft.Coyote.Samples.CloudMessaging.MockClient">
      <rect y="307.21500000000015" rx="5" ry="5" width="330.65333333333336" height="85.960000000000036" fill="#65C767" stroke="#A5A6A9" stroke-width="1" />
      <text x="20" y="325.16500000000013" fill="#000000">Microsoft.Coyote.Samples.CloudMessaging.MockClient</text>
      <rect x="5" y="335.17500000000013" width="320.65333333333336" height="53.000000000000036" fill="#FFFFFF" stroke="#A5A6A9" stroke-width="1" />
      <g id="Microsoft.Coyote.Samples.CloudMessaging.MockClient.MockClient">
        <rect x="125.48166666666668" y="347.21500000000015" rx="3" ry="3" width="79.69" height="25.960000000000036" fill="#FFFFFF" stroke="#A5A6A9" stroke-width="1" />
        <text x="135.48166666666668" y="365.16500000000013" fill="#3D3D3D">MockClient</text>
      </g>
    </g>
    <g id="Microsoft.Coyote.Samples.CloudMessaging.MockClusterManager">
      <rect x="228.17166666666671" y="117.64750000000004" rx="5" ry="5" width="384.30999999999995" height="85.960000000000036" fill="#65C767" stroke="#A5A6A9" stroke-width="1" />
      <text x="247.17166666666671" y="135.59750000000003" fill="#000000">Microsoft.Coyote.Samples.CloudMessaging.MockClusterManager</text>
      <rect x="233.17166666666671" y="145.60750000000004" width="374.30999999999995" height="53.000000000000036" fill="#FFFFFF" stroke="#A5A6A9" stroke-width="1" />
      <g id="Microsoft.Coyote.Samples.CloudMessaging.MockClusterManager.Init">
        <rect x="395.32666666666671" y="157.64750000000004" rx="3" ry="3" width="50" height="25.960000000000036" fill="#FFFFFF" stroke="#A5A6A9" stroke-width="1" />
        <text x="411.32666666666671" y="175.59750000000003" fill="#3D3D3D">Init</text>
      </g>
    </g>
    <g id="Microsoft.Coyote.Samples.CloudMessaging.SafetyMonitor">
      <rect y="495.09500000000025" rx="5" ry="5" width="346.12333333333333" height="85.960000000000036" fill="#65C767" stroke="#A5A6A9" stroke-width="1" />
      <text x="20" y="513.0450000000003" fill="#000000">Microsoft.Coyote.Samples.CloudMessaging.SafetyMonitor</text>
      <rect x="5" y="523.05500000000029" width="336.12333333333333" height="53.000000000000036" fill="#FFFFFF" stroke="#A5A6A9" stroke-width="1" />
      <g id="Microsoft.Coyote.Samples.CloudMessaging.SafetyMonitor.Monitoring-&gt;Microsoft.Coyote.Samples.CloudMessaging.SafetyMonitor.Monitoring">
        <path d="M 208.193333333333,541.586666862724 C 207.578517644968,541.585555620908 206.956573200523,541.585 206.3275,541.585 C 178.571388888889,541.585 164.693333333333,543.748333333334 164.693333333333,548.075 C 164.693333333333,552.013573373923 176.19338065397,554.159501113588 199.193475295244,554.512783218997" fill="none" stroke="#A0A0A0" stroke-width="1" />
        <path d="M 208.193333333333,554.563333137277 L 198.215957699137,550.507229655592 C 199.200964172026,553.179470917057 199.185986418462,555.846095520936 198.171024438443,558.507103467227 z" fill="#A0A0A0" stroke="#A0A0A0" stroke-width="1" stroke-linejoin="round" />
        <text x="58.393333333333374" y="553.0450000000003" fill="#A0A0A0">NotifyLeaderElected</text>
      </g>
      <g id="Microsoft.Coyote.Samples.CloudMessaging.SafetyMonitor.Monitoring">
        <rect x="208.19333333333333" y="535.09500000000025" rx="3" ry="3" width="79.536666666666633" height="25.960000000000036" fill="#FFFFFF" stroke="#A5A6A9" stroke-width="1" />
        <text x="218.19333333333333" y="553.0450000000003" fill="#3D3D3D">Monitoring</text>
      </g>
    </g>
    <g id="Microsoft.Coyote.Samples.CloudMessaging.Server">
      <rect x="360.88918861335395" y="235.29500000000007" rx="5" ry="5" width="504.87495610662569" height="229.80000000000018" fill="#EEEEEE" stroke="#A5A6A9" stroke-width="1" />
      <text x="480.88918861335395" y="253.24500000000006" fill="#000000">Microsoft.Coyote.Samples.CloudMessaging.Server</text>
      <rect x="365.88918861335395" y="263.25500000000005" width="494.87495610662569" height="196.84000000000017" fill="#FFFFFF" stroke="#A5A6A9" stroke-width="1" />
      <g id="Microsoft.Coyote.Samples.CloudMessaging.Server.Candidate-&gt;Microsoft.Coyote.Samples.CloudMessaging.Server.Candidate">
        <path d="M 449.582521946687,281.790687452922 C 448.507399207962,281.786895817641 447.408788096851,281.785 446.286688613354,281.785 C 419.483910835576,281.785 406.082521946687,283.948333333333 406.082521946687,288.275 C 406.082521946687,292.283000413008 417.582538082147,294.434598594429 440.582570353067,294.729794544261" fill="none" stroke="#A0A0A0" stroke-width="1" />
        <path d="M 449.582521946687,294.759312547078 L 439.595694843917,290.726536280117 C 440.586943390521,293.396468382243 440.578197315613,296.063120706279 439.56945661919,298.726493252224 z" fill="#A0A0A0" stroke="#A0A0A0" stroke-width="1" stroke-linejoin="round" />
        <text x="380.88918861335395" y="293.24500000000006" fill="#A0A0A0">goto</text>
      </g>
      <g id="Microsoft.Coyote.Samples.CloudMessaging.Server.Candidate-&gt;Microsoft.Coyote.Samples.CloudMessaging.Server.Follower">
        <path d="M 486.490855280021,301.255 L 486.490855280021,369.185 C 486.490855280021,387.165 505.490855280021,399.151666666667 543.490855280021,405.145 L 673.17241511581,425.598284612698" fill="none" stroke="#A0A0A0" stroke-width="1" />
        <path d="M 682.062521946687,427.000426023392 L 672.807799428243,421.491332531119 C 673.380139769246,424.281231748864 672.964690462373,426.915337476531 671.561451507626,429.393649714122 z" fill="#A0A0A0" stroke="#A0A0A0" stroke-width="1" stroke-linejoin="round" />
        <text x="461.29752194668725" y="365.16500000000013" fill="#A0A0A0">goto</text>
      </g>
      <g id="Microsoft.Coyote.Samples.CloudMessaging.Server.Candidate-&gt;Microsoft.Coyote.Samples.CloudMessaging.Server.Leader">
        <path d="M 500.498378453917,301.255 L 505.894188613354,306.255 C 518.049735375439,317.518875491271 528.49611526361,328.782750982542 537.233328277866,340.046626473813" fill="none" stroke="#A0A0A0" stroke-width="1" />
        <path d="M 542.67524163523,347.215 L 539.814615027576,336.83151236763 C 538.295309541005,339.240417087537 536.171347014727,340.852835860089 533.442727448743,341.668768685287 z" fill="#A0A0A0" stroke="#A0A0A0" stroke-width="1" stroke-linejoin="round" />
        <text x="525.2975219466872" y="329.2050000000001" fill="#A0A0A0">goto</text>
      </g>
      <g id="Microsoft.Coyote.Samples.CloudMessaging.Server.Follower-&gt;Microsoft.Coyote.Samples.CloudMessaging.Server.Candidate">
        <path d="M 682.062521946687,428.121428538813 L 568.490855280021,414.135 C 471.157521946687,402.148333333334 422.490855280021,384.168333333334 422.490855280021,360.195 C 422.490855280021,336.221666666667 433.157521946687,318.241666666667 454.490855280021,306.255 L 455.543357304507,305.663625424992" fill="none" stroke="#A0A0A0" stroke-width="1" />
        <path d="M 463.389631698263,301.255 L 452.71215996076,302.666239630544 C 454.890227611915,304.501214403695 456.196486997098,306.826036446289 456.630938116308,309.640705758327 z" fill="#A0A0A0" stroke="#A0A0A0" stroke-width="1" stroke-linejoin="round" />
        <text x="397.29752194668725" y="365.16500000000013" fill="#A0A0A0">goto</text>
      </g>
      <g id="Microsoft.Coyote.Samples.CloudMessaging.Server.Init-&gt;Microsoft.Coyote.Samples.CloudMessaging.Server.Follower">
        <path d="M 795.105688427963,373.175 L 801.505855280021,378.175 C 816.849188613354,390.161666666667 806.182521946687,402.148333333334 769.505855280021,414.135 L 755.413597252814,418.7406311793" fill="none" stroke="#A0A0A0" stroke-width="1" />
        <path d="M 746.85887881471,421.536483901596 L 757.606722733624,422.232077960424 C 755.827797656117,420.007996873834 754.999396849511,417.473265484766 755.121520313805,414.627883793221 z" fill="#A0A0A0" stroke="#A0A0A0" stroke-width="1" stroke-linejoin="round" />
        <text x="808.7941447199795" y="401.12500000000017" fill="#A0A0A0">default</text>
      </g>
      <g id="Microsoft.Coyote.Samples.CloudMessaging.Server.Init-&gt;Microsoft.Coyote.Samples.CloudMessaging.Server.Follower">
        <path d="M 772.28480781988,373.175 L 769.894188613354,378.175 C 764.240273876928,390.00020980546 753.782869065003,401.825419610919 738.521974177578,413.650629416379" fill="none" stroke="#A0A0A0" stroke-width="1" />
        <path d="M 731.386031401637,419.135 L 741.752354745404,416.212785029728 C 739.3344735233,414.707806123926 737.709474831857,412.593452708832 736.877358671073,409.869724784447 z" fill="#A0A0A0" stroke="#A0A0A0" stroke-width="1" stroke-linejoin="round" />
        <text x="761.2975219466872" y="401.12500000000017" fill="#A0A0A0">goto</text>
      </g>
      <g id="Microsoft.Coyote.Samples.CloudMessaging.Server.Init-&gt;Microsoft.Coyote.Samples.CloudMessaging.Server.Follower">
        <path d="M 755.619700884842,373.045729875791 L 746.490855280021,378.175 C 727.525404149783,388.831212853802 716.990148407985,399.487425707604 714.885088054627,410.143638561407" fill="none" stroke="#A0A0A0" stroke-width="1" />
        <path d="M 714.490855280021,419.135 L 718.925052335625,409.319812968055 C 716.217141601085,410.202043416904 713.553034508169,410.085233705909 710.932731056875,408.969383835071 z" fill="#A0A0A0" stroke="#A0A0A0" stroke-width="1" stroke-linejoin="round" />
        <text x="582.93280179459543" y="401.83760226048838" fill="#A0A0A0">NotifyJoinedServiceEvent</text>
      </g>
      <g id="Microsoft.Coyote.Samples.CloudMessaging.Server.Leader-&gt;Microsoft.Coyote.Samples.CloudMessaging.Server.Follower">
        <path d="M 548.881289095371,373.175 L 547.490855280021,378.175 C 544.157521946687,390.161666666667 571.157521946687,402.148333333334 628.490855280021,414.135 L 673.252995731147,423.493410294317" fill="none" stroke="#A0A0A0" stroke-width="1" />
        <path d="M 682.062521946687,425.335215891473 L 673.092739750379,419.373420243282 C 673.525855819615,422.188295299422 672.98013564268,424.798525289212 671.455579219574,427.204110212651 z" fill="#A0A0A0" stroke="#A0A0A0" stroke-width="1" stroke-linejoin="round" />
        <text x="522.9182177695667" y="397.69590867042308" fill="#A0A0A0">goto</text>
      </g>
      <g id="Microsoft.Coyote.Samples.CloudMessaging.Server.Candidate">
        <rect x="449.58252194668728" y="275.29500000000007" rx="3" ry="3" width="73.8166666666666" height="25.960000000000036" fill="#FFFFFF" stroke="#A5A6A9" stroke-width="1" />
        <text x="459.58252194668728" y="293.24500000000006" fill="#3D3D3D">Candidate</text>
      </g>
      <g id="Microsoft.Coyote.Samples.CloudMessaging.Server.Follower">
        <rect x="682.0625219466873" y="419.13500000000022" rx="3" ry="3" width="64.85666666666657" height="25.960000000000036" fill="#FFFFFF" stroke="#A5A6A9" stroke-width="1" />
        <text x="692.0625219466873" y="437.08500000000021" fill="#3D3D3D">Follower</text>
      </g>
      <g id="Microsoft.Coyote.Samples.CloudMessaging.Server.Init">
        <rect x="753.49085528002058" y="347.21500000000015" rx="3" ry="3" width="50" height="25.960000000000036" fill="#FFFFFF" stroke="#A5A6A9" stroke-width="1" />
        <text x="769.49085528002058" y="365.16500000000013" fill="#3D3D3D">Init</text>
      </g>
      <g id="Microsoft.Coyote.Samples.CloudMessaging.Server.Leader">
        <rect x="524.71585528002061" y="347.21500000000015" rx="3" ry="3" width="55.549999999999955" height="25.960000000000036" fill="#FFFFFF" stroke="#A5A6A9" stroke-width="1" />
        <text x="534.71585528002061" y="365.16500000000013" fill="#3D3D3D">Leader</text>
      </g>
    </g>
    <g id="Microsoft.Coyote.TestingServices.Timers.MockStateMachineTimer">
      <rect x="5.2350000000000136" rx="5" ry="5" width="384.18333333333334" height="85.960000000000036" fill="#65C767" stroke="#A5A6A9" stroke-width="1" />
      <text x="25.235000000000014" y="17.950000000000003" fill="#000000">Microsoft.Coyote.TestingServices.Timers.MockStateMachineTimer</text>
      <rect x="10.235000000000014" y="27.96" width="374.18333333333334" height="53.000000000000036" fill="#FFFFFF" stroke="#A5A6A9" stroke-width="1" />
      <g id="Microsoft.Coyote.TestingServices.Timers.MockStateMachineTimer.Active-&gt;Microsoft.Coyote.TestingServices.Timers.MockStateMachineTimer.Active">
        <path d="M 211.421666666667,46.5478853456075 C 208.735376757479,46.5092951152025 205.842043424146,46.49 202.741666666667,46.49 C 179.528333333334,46.49 167.921666666667,48.6533333333333 167.921666666667,52.98 C 167.921666666667,57.2867510472598 179.421728423096,59.4500385448578 202.421851935954,59.4698624927941" fill="none" stroke="#A0A0A0" stroke-width="1" />
        <path d="M 211.421666666667,59.4121146543926 L 201.396206815474,55.4763612611885 C 202.413296700635,58.1365566067625 202.430407171273,60.8031683788257 201.447538227387,63.4761965773779 z" fill="#A0A0A0" stroke="#A0A0A0" stroke-width="1" stroke-linejoin="round" />
        <text x="130.95166666666637" y="57.95" fill="#A0A0A0">default</text>
      </g>
      <g id="Microsoft.Coyote.TestingServices.Timers.MockStateMachineTimer.Active">
        <rect x="211.42166666666702" y="40" rx="3" ry="3" width="52.279999999999973" height="25.960000000000036" fill="#FFFFFF" stroke="#A5A6A9" stroke-width="1" />
        <text x="221.42166666666702" y="57.95" fill="#3D3D3D">Active</text>
      </g>
    </g>
  </g>
</svg>