<svg id="Layer_1_copy" data-name="Layer 1 copy" xmlns="http://www.w3.org/2000/svg" >
  <defs>
    <style>
      .cls-1 {
        fill: #fff;
      }
    </style>
  </defs>
  <title>logo_coyote</title>
  <rect width="600" height="600" fill="#ff6633"/>
  <g transform="translate(73,231)">
    <path class="cls-1" d="M27.7921,108.84a37.6386,37.6386,0,0,1-14.04-14.4716A41.43,41.43,0,0,1,8.64,73.92,43.8383,43.8383,0,0,1,13.3922,53.4a36.2065,36.2065,0,0,1,13.2481-14.4,35.4005,35.4005,0,0,1,19.0078-5.2559,39.0255,39.0255,0,0,1,16.8481,3.6A37.0485,37.0485,0,0,1,75.7443,48.0005a4.5831,4.5831,0,0,1,1.0078,2.4477,3.52,3.52,0,0,1-2.0161,3.168,3.44,3.44,0,0,1-2.3037.8643,3.9706,3.9706,0,0,1-3.312-1.7281A29.3458,29.3458,0,0,0,45.6481,41.8086,26.6381,26.6381,0,0,0,20.8083,57.36,37.7458,37.7458,0,0,0,17.28,73.92a34.5379,34.5379,0,0,0,3.8882,16.416,29.05,29.05,0,0,0,10.8,11.52,30.0065,30.0065,0,0,0,15.84,4.1758q12.6693,0,20.3037-7.0556a4.1438,4.1438,0,0,1,3.0244-1.2959,3.5169,3.5169,0,0,1,2.5918,1.0078,4.1079,4.1079,0,0,1,1.44,3.1679,3.2847,3.2847,0,0,1-1.1518,2.5918,35.79,35.79,0,0,1-11.8081,7.1285,40.9826,40.9826,0,0,1-14.4,2.5195A38.692,38.692,0,0,1,27.7921,108.84Z" transform="translate(-8.6403 -9.4082)"/>
    <path class="cls-1" d="M105.4064,108.84A38.0759,38.0759,0,0,1,90.9342,94.3687,40.5275,40.5275,0,0,1,85.6784,73.92a40.8145,40.8145,0,0,1,5.2558-20.5918,38.108,38.108,0,0,1,14.4722-14.4722,42.6852,42.6852,0,0,1,41.04,0,38.1394,38.1394,0,0,1,14.4717,14.4722A40.8343,40.8343,0,0,1,166.1745,73.92a40.5472,40.5472,0,0,1-5.2564,20.4483A38.1072,38.1072,0,0,1,146.4464,108.84a42.6844,42.6844,0,0,1-41.04,0Zm36.72-6.9839a29.9652,29.9652,0,0,0,11.3042-11.52,33.0717,33.0717,0,0,0,4.104-16.416,33.072,33.072,0,0,0-4.104-16.416,30.4975,30.4975,0,0,0-11.3042-11.5918A31.6268,31.6268,0,0,0,98.4943,57.5044,32.6044,32.6044,0,0,0,94.318,73.92a32.6041,32.6041,0,0,0,4.1763,16.416,30.4612,30.4612,0,0,0,11.376,11.52,33.2327,33.2327,0,0,0,32.2558,0Z" transform="translate(-8.6403 -9.4082)"/>
    <path class="cls-1" d="M255.8122,35.92a4.0512,4.0512,0,0,1,1.08,2.88,5.0572,5.0572,0,0,1-.72,2.7363l-39.7441,63.648v37.728a4.3206,4.3206,0,1,1-8.64,0v-37.728l-39.7441-63.648A5.9319,5.9319,0,0,1,167.18,38.8a3.9039,3.9039,0,0,1,1.1519-2.88,4.09,4.09,0,0,1,3.0239-1.1518,4.6534,4.6534,0,0,1,3.4561,1.728l37.2959,60.768,36.72-59.76a6.7368,6.7368,0,0,1,1.9438-2.16,4.1886,4.1886,0,0,1,2.232-.5756A3.6769,3.6769,0,0,1,255.8122,35.92Z" transform="translate(-8.6403 -9.4082)"/>
    <path class="cls-1" d="M277.6276,108.84a38.0752,38.0752,0,0,1-14.4722-14.4716A40.5275,40.5275,0,0,1,257.9,73.92a40.8145,40.8145,0,0,1,5.2558-20.5918,38.1073,38.1073,0,0,1,14.4722-14.4722,42.6852,42.6852,0,0,1,41.04,0,38.14,38.14,0,0,1,14.4717,14.4722A40.8343,40.8343,0,0,1,338.3957,73.92a40.5472,40.5472,0,0,1-5.2564,20.4483A38.1079,38.1079,0,0,1,318.6676,108.84a42.6844,42.6844,0,0,1-41.04,0Zm36.72-6.9839a29.9652,29.9652,0,0,0,11.3042-11.52,33.0717,33.0717,0,0,0,4.104-16.416,33.072,33.072,0,0,0-4.104-16.416,30.4975,30.4975,0,0,0-11.3042-11.5918,31.6268,31.6268,0,0,0-43.6318,11.5918,32.6033,32.6033,0,0,0-4.1763,16.416,32.6031,32.6031,0,0,0,4.1763,16.416,30.4612,30.4612,0,0,0,11.376,11.52,33.2327,33.2327,0,0,0,32.2558,0Z" transform="translate(-8.6403 -9.4082)"/>
    <path class="cls-1" d="M387.4254,105.6724a4.3888,4.3888,0,0,1,1.2242,3.24,4.1982,4.1982,0,0,1-1.2242,3.0957,4.3791,4.3791,0,0,1-3.24,1.2241h-3.312a27.541,27.541,0,0,1-14.1118-3.6,25.3872,25.3872,0,0,1-9.648-9.8637,28.8646,28.8646,0,0,1-3.456-14.1841V45.1206h-11.232a3.89,3.89,0,1,1,0-7.7764h11.232V13.8726a4.38,4.38,0,0,1,1.2241-3.24,4.1985,4.1985,0,0,1,3.0957-1.2241,4.208,4.208,0,0,1,4.4644,4.4644V37.3442h19.0078a3.89,3.89,0,1,1,0,7.7764H362.4416V85.5845q0,8.3532,5.1836,13.6079a17.9844,17.9844,0,0,0,13.392,5.2558h3.168A4.3886,4.3886,0,0,1,387.4254,105.6724Z" transform="translate(-8.6403 -9.4082)"/>
    <path class="cls-1" d="M444.7379,38.7124a34.2671,34.2671,0,0,1,12.8868,13.752,42.44,42.44,0,0,1,4.6074,20.0161,3.8577,3.8577,0,0,1-1.15,2.9521,4.2493,4.2493,0,0,1-3.0254,1.08H397.7209a32.1121,32.1121,0,0,0,4.4643,15.1924,28.5091,28.5091,0,0,0,10.8,10.44,30.6842,30.6842,0,0,0,15.12,3.7437,34.79,34.79,0,0,0,11.3037-1.9439,24.1159,24.1159,0,0,0,9.001-5.1118,4.7651,4.7651,0,0,1,3.0235-1.1518,3.7882,3.7882,0,0,1,2.8789,6.6235,36.4657,36.4657,0,0,1-12.0235,6.9121,40.9441,40.9441,0,0,1-14.1836,2.7363,39.7213,39.7213,0,0,1-20.2319-5.1123,36.3849,36.3849,0,0,1-13.896-14.2558,42.0618,42.0618,0,0,1-5.04-20.6641,45.0189,45.0189,0,0,1,4.68-20.8081,34.8617,34.8617,0,0,1,13.104-14.2559,36.3286,36.3286,0,0,1,19.2241-5.1118A35.8235,35.8235,0,0,1,444.7379,38.7124Zm-37.729,10.584q-7.705,7.489-9.144,19.728h56.0156q-1.0077-12.2381-8.6386-19.728-7.6356-7.4853-19.2969-7.4878A26.1318,26.1318,0,0,0,407.0089,49.2964Z" transform="translate(-8.6403 -9.4082)"/>
  </g>
</svg>
