<?xml version="1.0" encoding="utf-8"?>
<!-- Generator: Adobe Illustrator 24.0.3, SVG Export Plug-In . SVG Version: 6.00 Build 0)  -->
<svg version="1.1" id="Layer_1" xmlns="http://www.w3.org/2000/svg" xmlns:xlink="http://www.w3.org/1999/xlink" x="0px" y="0px"
	 viewBox="0 0 560 108.4" style="enable-background:new 0 0 560 108.4;" xml:space="preserve">
<style type="text/css">
	.st0{fill:none;}
	.st1{fill-rule:evenodd;clip-rule:evenodd;fill:#F65314;}
	.st2{fill-rule:evenodd;clip-rule:evenodd;fill:#7FBB41;}
	.st3{fill-rule:evenodd;clip-rule:evenodd;fill:#FFFFFF;}
	.st4{fill-rule:evenodd;clip-rule:evenodd;fill:#00A1F1;}
	.st5{fill-rule:evenodd;clip-rule:evenodd;fill:#FFBB00;}
</style>
<path class="st0" d="M0-26.4h559.7v161.1H0V-26.4z"/>
<path class="st1" d="M26.1,0h51.6l0,51.6H26.1L26.1,0z"/>
<path class="st2" d="M82.9,0h51.6c0,17.2,0,34.4,0,51.6c-17.2,0-34.4,0-51.5,0C82.9,34.4,82.9,17.2,82.9,0L82.9,0z"/>
<path class="st3" d="M491,19.6c4.8-3.1,10.9-3.4,16.2-1.9c0,3.2,0,6.4,0,9.6c-2.5-1.1-5.5-1.9-8.2-0.8c-2.1,0.8-3.4,3-3.7,5.2
	c-0.4,2.8-0.1,5.6-0.2,8.3c5.4,0,10.9,0,16.3,0c0-3.5,0-7.1,0-10.6c3.7-1.1,7.4-2.2,11-3.3c0,4.6,0,9.3,0,14c3.7-0.1,7.4,0,11,0v9.1
	c-3.7-0.2-7.4,0-11.1-0.1c0,5.2,0,10.4,0,15.6c0.1,2.9-0.2,5.8,0.2,8.7c0.2,1.7,0.8,3.6,2.4,4.4c2.7,1.5,6,0.8,8.5-0.8v9.1
	c-3.2,1.4-6.7,1.8-10.2,1.6c-3.3-0.2-6.7-1.4-8.8-4c-2.5-2.9-3.1-6.9-3.1-10.6c0-8,0-16,0-24c-5.4,0-10.9,0-16.3,0
	c0,12.5,0,25.1,0,37.6H484c0-12.5,0-25.1,0-37.6c-2.6-0.1-5.2,0-7.8,0c0-3,0-6,0-8.9c2.6-0.1,5.1,0,7.7,0c0.2-4-0.4-8,0.8-11.9
	C485.7,24.7,487.9,21.6,491,19.6L491,19.6z M252.3,20.3c2.2-0.3,4.7,0.4,6.2,2.2c1.7,1.9,2.1,5,0.8,7.2c-1.4,2.5-4.6,3.7-7.4,3.1
	c-2.9-0.5-5.3-3.2-5.2-6.2C246.5,23.5,249.2,20.6,252.3,20.3L252.3,20.3z M166.8,21.7H183c5,12.8,10.1,25.6,15.2,38.4
	c1.3,3.2,2.5,6.4,3.9,9.6c6.5-16,13.1-32,19.5-48c5.2-0.1,10.4,0,15.6,0c0,21.7,0,43.3,0,65c-3.8,0-7.5,0-11.3,0c0-16,0-32,0-48
	c0-0.7,0-1.4-0.1-2.2c-0.2,0.3-0.4,0.7-0.6,1c-6.4,16.4-13,32.7-19.4,49.1c-2.7,0.1-5.3,0-8,0c-6.6-16.4-13.2-32.8-19.8-49.2
	c-0.2-0.3-0.4-0.7-0.6-1c-0.1,7,0,14-0.1,21c0,9.7,0,19.4,0,29.1c-3.5,0-7.1,0-10.6,0C166.8,65,166.8,43.3,166.8,21.7L166.8,21.7z
	 M283,40.1c5.4-1.5,11.2-1.5,16.6,0c1.1,0.3,2.2,0.7,3.2,1.3c-0.1,3.6,0,7.1,0,10.7c-3.6-2.7-8.2-4.5-12.7-3.9
	c-3.6,0.3-7.1,2.2-9.3,5.1c-2.8,3.6-3.4,8.5-3,12.9c0.4,3.5,1.8,7,4.5,9.3c2.8,2.5,6.8,3.4,10.4,3.1c3.6-0.4,7.1-2,10-4.1
	c0,3.4,0,6.7,0,10.1c-4.6,2.7-10,3.4-15.2,3.2c-5.3-0.3-10.7-2.3-14.5-6.1c-4.2-4-6.5-9.8-6.7-15.6c-0.3-6,1-12.3,4.4-17.3
	C273.5,44.5,278,41.5,283,40.1L283,40.1z M404.8,39.3c5.2-0.9,10.6-0.2,15.4,1.6c0,3.4,0,6.8,0,10.2c-3.4-2.3-7.6-3.6-11.7-3.5
	c-2.1,0.1-4.4,1-5.3,2.9c-0.8,2-0.2,4.5,1.6,5.7c3.2,2.1,6.9,3,10.2,4.9c2.6,1.4,5.1,3.3,6.4,6.1c2.5,5.1,1.4,11.9-2.9,15.7
	c-4.1,3.9-10.1,4.9-15.5,4.7c-3.9-0.3-7.8-1-11.3-2.6c0-3.6,0-7.2,0-10.8c3,2.2,6.5,3.7,10.1,4.4c2.5,0.4,5.3,0.4,7.7-0.7
	c2.3-1.1,2.7-4.4,1.3-6.3c-1.3-1.5-3.1-2.4-4.9-3.2c-3.3-1.5-6.7-2.7-9.6-4.9c-2-1.6-3.6-3.8-4.2-6.3c-0.9-3.7-0.6-7.9,1.5-11.1
	C396.1,42.4,400.4,40.1,404.8,39.3L404.8,39.3z M327.6,40.8c3.1-1.8,7-2,10.3-0.9c0,3.7,0,7.4,0,11.2c-2.2-1.4-4.9-2-7.5-1.8
	c-3.2,0.4-5.7,2.8-7,5.6c-1.4,2.9-1.7,6.3-1.6,9.5c0,7.4,0,14.9,0,22.3h-11c0-15.5,0-31.1,0-46.6c3.7,0,7.3,0,11,0c0,2.7,0,5.3,0,8
	C323.1,45.2,324.8,42.4,327.6,40.8L327.6,40.8z M247.6,40.1c3.7,0,7.4-0.1,11.1,0c0,15.5,0,31,0,46.6h-11.1
	C247.6,71.2,247.6,55.6,247.6,40.1L247.6,40.1z M358.5,39.2c5.4-0.7,11-0.4,16,1.9c4.3,1.9,7.8,5.5,9.7,9.8
	c2.1,4.6,2.6,9.7,2.2,14.7c-0.3,4.9-1.9,9.7-4.9,13.6c-3.1,4.1-7.8,6.9-12.8,7.9c-4.3,0.9-8.8,0.9-13.1,0c-5.1-1.1-9.9-4.1-12.9-8.4
	c-3.5-5-4.5-11.4-4.1-17.4c0.3-5.1,1.9-10.2,5.1-14.2C347.4,42.6,352.9,40,358.5,39.2L358.5,39.2z M361.8,48.1
	c-2.7,0.1-5.4,1.1-7.3,2.9c-2.7,2.5-4,6.1-4.3,9.7c-0.4,3.9-0.1,8.1,1.7,11.7c1.4,2.8,4,5,7,5.8c3,0.8,6.2,0.7,9.1-0.4
	c2.5-1,4.4-3,5.5-5.4c1.6-3.6,1.8-7.6,1.6-11.4c-0.3-3.5-1.3-7.2-3.9-9.7C368.7,48.8,365.2,47.9,361.8,48.1L361.8,48.1z M447.4,39.2
	c5.6-0.7,11.5-0.3,16.5,2.2c4.4,2.2,7.9,6.2,9.6,10.8c1.3,3.5,1.8,7.4,1.7,11.1c0,5.6-1.5,11.4-5,15.9c-3.3,4.3-8.4,7.1-13.7,8
	c-5.2,0.8-10.7,0.6-15.7-1.3c-5-2-9.2-6-11.3-11c-2.2-5.1-2.4-10.8-1.8-16.2c0.7-5.4,3.2-10.7,7.4-14.3
	C438.5,41.5,442.9,39.8,447.4,39.2z M450.4,48.1c-3.1,0.2-6.1,1.5-8.1,3.9c-2.2,2.6-3.1,6-3.4,9.3c-0.3,3.4,0,7,1.3,10.2
	c1.1,2.7,3.2,5,5.9,6.2c2.5,1.1,5.3,1.3,8,0.9c2.5-0.4,4.9-1.6,6.5-3.5c1.6-1.9,2.5-4.4,2.9-6.8c0.5-3.3,0.5-6.7-0.1-10
	c-0.6-2.8-1.8-5.6-4-7.4C456.9,48.6,453.5,47.9,450.4,48.1L450.4,48.1z"/>
<path class="st4" d="M26.1,56.8c17.2,0,34.4,0,51.6,0c0,17.2,0,34.4,0,51.6H26.1L26.1,56.8z"/>
<path class="st5" d="M82.9,56.8c17.2,0,34.4,0,51.6,0v51.6H82.9C82.9,91.2,82.9,74,82.9,56.8z"/>
</svg>
